Coordinates
version=1
nRows=12
nColumns=24
inDegrees=yes

Units are S.I. units (second, meters, Newtons, ...)
Angles are in degrees.

endheader
time	pelvis_tilt	pelvis_list	pelvis_rotation	pelvis_tx	pelvis_ty	pelvis_tz	hip_flexion_r	hip_adduction_r	hip_rotation_r	knee_angle_r	ankle_angle_r	subtalar_angle_r	mtp_angle_r	hip_flexion_l	hip_adduction_l	hip_rotation_l	knee_angle_l	ankle_angle_l	subtalar_angle_l	mtp_angle_l	lumbar_extension	lumbar_bending	lumbar_rotation
      0.52100000	     -2.82047218	      6.58736206	     -3.38237390	     -0.72863727	      0.97854009	      0.30459225	     28.49008508	     -4.72286643	     -1.28630537	     -1.48477356	      0.41725813	     -1.87061516	      0.76323838	    -16.99527727	     11.78755293	      4.22151175	      1.74495548	     10.75542947	     -8.58384474	     -0.03623827	    -10.19251922	     -0.37457298	     -7.42845282
      0.52516667	     -2.94939318	      6.50854085	     -3.42071167	     -0.72292230	      0.97760325	      0.30485296	     28.63590883	     -4.56082285	     -1.07023163	     -1.68984209	      0.08024253	     -1.99803229	      6.14304409	    -17.01100404	     11.70410251	      4.12559794	      1.32265227	     11.07529344	     -8.28671596	     -1.79581143	    -10.04282278	     -0.25618636	     -7.34208112
      0.52933333	     -3.00458281	      6.36603375	     -3.48422486	     -0.71713872	      0.97682358	      0.30515382	     28.66629730	     -4.33256627	     -0.79458880	     -1.91191937	     -0.25553856	     -2.12056246	      6.15528629	    -17.14181008	     11.56274398	      4.15204137	      0.97451360	     11.15286173	     -8.35174244	     -1.77749063	     -9.97618298	     -0.03153681	     -7.32851187
      0.53350000	     -3.08307159	      6.23643738	     -3.54510542	     -0.71135932	      0.97605011	      0.30549630	     28.74531702	     -4.11058420	     -0.47064623	     -2.24109930	     -0.66520680	     -2.42105665	      6.18779785	    -17.21267829	     11.43246384	      4.09928638	      0.55667628	     11.29213691	     -8.23929557	     -1.72247759	     -9.88772058	      0.15201037	     -7.33214407
      0.53766667	     -3.15172834	      6.08082522	     -3.61662438	     -0.70551917	      0.97533359	      0.30584441	     28.81455680	     -3.86269784	     -0.16178595	     -2.63643862	     -1.08707610	     -2.66625641	      6.23134186	    -17.27989642	     11.28194134	      4.00677615	      0.10734593	     11.43052560	     -8.11708877	     -1.64271624	     -9.80647027	      0.38012144	     -7.31825222
      0.54183333	     -3.22956953	      5.91725232	     -3.68585655	     -0.69964866	      0.97465273	      0.30621579	     28.90085740	     -3.60543839	      0.15506852	     -3.10135361	     -1.55012975	     -2.94527286	      6.27691162	    -17.32089568	     11.12203625	      3.93539338	     -0.37665633	     11.54682078	     -8.02121866	     -1.54955385	     -9.71441265	      0.61649498	     -7.30194558
      0.54600000	     -3.29707978	      5.74615239	     -3.75833982	     -0.69376768	      0.97403219	      0.30661971	     28.97651118	     -3.33733250	      0.50031817	     -3.60962113	     -2.06040114	     -3.31321064	      6.35132128	    -17.34236413	     10.95691326	      3.81424352	     -0.92693368	     11.66728153	     -7.90220839	     -1.39229760	     -9.65058593	      0.85136388	     -7.28609520
      0.55016667	     -3.38550466	      5.54634328	     -3.83929051	     -0.68779279	      0.97342323	      0.30701748	     29.08232921	     -3.03937101	      0.79458909	     -4.18459672	     -2.56718132	     -3.56410587	      6.38741286	    -17.35506874	     10.76712789	      3.73924438	     -1.45649940	     11.70777575	     -7.90199515	     -1.30209741	     -9.53286377	      1.15248874	     -7.25429524
      0.55433333	     -3.46123697	      5.36613636	     -3.91665326	     -0.68184466	      0.97287189	      0.30747893	     29.18538685	     -2.75311501	      1.14127868	     -4.80341257	     -3.17595145	     -4.07945963	      6.44602631	    -17.35143956	     10.59287178	      3.64556583	     -2.03673025	     11.76293864	     -7.79064436	     -1.14288617	     -9.44765090	      1.38187410	     -7.23280434
      0.55850000	     -3.52798837	      5.17429484	     -3.99678061	     -0.67584993	      0.97237687	      0.30792908	     29.28091088	     -2.45811197	      1.46628354	     -5.45791792	     -3.77519543	     -4.55846517	      6.51943208	    -17.33658554	     10.41218007	      3.52169701	     -2.66264868	     11.78604704	     -7.70312558	     -0.93551959	     -9.35840582	      1.65700749	     -7.19840821
      0.56266667	     -3.60995311	      4.97382394	     -4.07653616	     -0.66983138	      0.97190357	      0.30840260	     29.39960092	     -2.15103274	      1.78023245	     -6.15285224	     -4.36207665	     -5.04348005	      6.60086412	    -17.28742673	     10.22282798	      3.40587060	     -3.33120184	     11.77724171	     -7.65203297	     -0.68758803	     -9.26469869	      1.92831574	     -7.16568411
      0.56683333	     -3.68145224	      4.77199754	     -4.16237100	     -0.66377757	      0.97148272	      0.30889171	     29.51916207	     -1.84089902	      2.07400117	     -6.89297854	     -4.93218288	     -5.53396287	      6.67924722	    -17.23619138	     10.03588772	      3.29006579	     -4.02023406	     11.72180069	     -7.63125411	     -0.42233887	     -9.17226532	      2.21117866	     -7.12707743
